<svg xmlns="http://www.w3.org/2000/svg" width="256" height="256" viewBox="0 0 100 100"><rect width="100" height="100" rx="20" fill="#1dabeb"></rect><path d="M38.09 81.64L13.04 18.36L16.47 18.36L39.80 77.38L63.14 18.36L66.52 18.36L41.52 81.64L38.09 81.64ZM40.20 69.86L19.85 18.36L23.24 18.36L42.00 65.82L40.20 69.86ZM43.72 61.51L26.67 18.36L30.09 18.36L45.39 57.16L43.72 61.51ZM47.06 52.81L33.48 18.36L36.86 18.36L48.73 48.37L47.06 52.81ZM58.53 81.64L83.53 18.36L86.96 18.36L61.91 81.64L58.53 81.64ZM51.71 81.64L76.76 18.36L80.15 18.36L55.10 81.64L51.71 81.64ZM44.90 81.64L69.91 18.36L73.33 18.36L48.29 81.64L44.90 81.64Z" fill="#fff"></path></svg>